# xmcd
#
# Track frame offsets:
#	150
#	16962
#	40718
#	60048
#	80408
#	97663
#	115563
#	145567
#	171703
#	195651
#	222404
#	233744
#	246583
#	264888
#	276489
#	294252
#	308034
#
# Disc length: 4368 seconds
#
# Revision: 0
# Processed by: cddbd v1.4PL0 Copyright (c) Steve Scherf et al.
# Submitted via: dBpowerAMP V4.0
#
DISCID=e1110e11
DTITLE=Fala Mansa - MIX
DYEAR=2002
DGENRE=Country
TTITLE0=Rindo a Toa
TTITLE1=Medo de chuva
TTITLE2=Xote da Alegria
TTITLE3=Xote do Milagre
TTITLE4=A Solucao
TTITLE5=Xote Caladinho
TTITLE6=A falta
TTITLE7=Rastape Colo de Menina
TTITLE8=Avisa
TTITLE9=Fala Mansa
TTITLE10=Fala Baixo
TTITLE11=Minha Gata
TTITLE12=Sorriso Lindo
TTITLE13=Esperando na Janela
TTITLE14=Como Voce ta Boa
TTITLE15=Deixe Entrar que a Fala e Mansa
TTITLE16=Xote Universitario
EXTD=Fala mansa
EXTT0=
EXTT1=
EXTT2=
EXTT3=
EXTT4=
EXTT5=
EXTT6=
EXTT7=
EXTT8=
EXTT9=
EXTT10=
EXTT11=
EXTT12=
EXTT13=
EXTT14=
EXTT15=
EXTT16=
PLAYORDER=
